<svg width="36" height="32" viewBox="0 0 36 32" fill="none" xmlns="http://www.w3.org/2000/svg">
<g clip-path="url(#clip0)">
<path d="M18 0.666656C8.055 0.666656 0 7.70666 0 16.3893C0 23.3373 5.157 29.2293 12.3075 31.3067C13.2075 31.4547 13.5375 30.968 13.5375 30.5507C13.5375 30.1773 13.5225 29.188 13.515 27.8773C8.508 28.8253 7.452 25.768 7.452 25.768C6.633 23.9533 5.4495 23.468 5.4495 23.468C3.819 22.4933 5.5755 22.5133 5.5755 22.5133C7.383 22.6227 8.3325 24.1333 8.3325 24.1333C9.9375 26.5373 12.546 25.8427 13.575 25.4413C13.737 24.424 14.2005 23.732 14.715 23.3387C10.7175 22.9453 6.516 21.5933 6.516 15.5693C6.516 13.8533 7.2135 12.4507 8.3685 11.3507C8.166 10.9533 7.5585 9.35466 8.526 7.18932C8.526 7.18932 10.0335 6.76799 13.476 8.80132C14.916 8.45199 16.446 8.27866 17.976 8.27066C19.506 8.27866 21.036 8.45199 22.476 8.80132C25.896 6.76799 27.4035 7.18932 27.4035 7.18932C28.371 9.35466 27.7635 10.9533 27.5835 11.3507C28.731 12.4507 29.4285 13.8533 29.4285 15.5693C29.4285 21.6093 25.221 22.9387 21.216 23.3253C21.846 23.7973 22.431 24.7613 22.431 26.2347C22.431 28.3387 22.4085 30.0293 22.4085 30.54C22.4085 30.952 22.7235 31.444 23.646 31.2867C30.8475 29.2227 36 23.3267 36 16.3893C36 7.70666 27.9405 0.666656 18 0.666656Z" fill="#120101"/>
</g>
<defs>
<clipPath id="clip0">
<rect width="36" height="32" fill="white"/>
</clipPath>
</defs>
</svg>
