<svg width="25" height="30" viewBox="0 0 25 30" fill="none" xmlns="http://www.w3.org/2000/svg">
<g clip-path="url(#clip0)">
<path d="M23.197 0H1.80302C0.80719 0 0 0.968628 0 2.16362V27.8364C0 29.0314 0.80719 30 1.80302 30H23.197C24.1928 30 25 29.0314 25 27.8364V2.16362C25 0.968628 24.1928 0 23.197 0V0ZM8.86765 22.6758H5.82333V11.6851H8.86765V22.6758ZM7.34558 10.1843H7.32574C6.30417 10.1843 5.64346 9.34044 5.64346 8.28575C5.64346 7.20726 6.32439 6.38672 7.3658 6.38672C8.40721 6.38672 9.04808 7.20726 9.06792 8.28575C9.06792 9.34044 8.40721 10.1843 7.34558 10.1843ZM19.8448 22.6758H16.8009V16.796C16.8009 15.3184 16.3601 14.3106 15.2586 14.3106C14.4176 14.3106 13.9168 14.9904 13.6967 15.6466C13.6162 15.8814 13.5965 16.2096 13.5965 16.5381V22.6758H10.5524C10.5524 22.6758 10.5923 12.7162 10.5524 11.6851H13.5965V13.2413C14.0011 12.4924 14.7249 11.4272 16.3401 11.4272C18.343 11.4272 19.8448 12.998 19.8448 16.3737V22.6758Z" fill="#002689"/>
</g>
<defs>
<clipPath id="clip0">
<rect width="25" height="30" fill="white"/>
</clipPath>
</defs>
</svg>
